<svg xmlns="http://www.w3.org/2000/svg" version="1.1" xmlns:xlink="http://www.w3.org/1999/xlink" xmlns:svgjs="http://svgjs.dev/svgjs" width="1500" height="261" viewBox="0 0 1500 261"><g transform="matrix(1,0,0,1,-0.9090909090909918,0.12176160484787601)"><svg viewBox="0 0 396 69" data-background-color="#3581a4" preserveAspectRatio="xMidYMid meet" height="261" width="1500" xmlns="http://www.w3.org/2000/svg" xmlns:xlink="http://www.w3.org/1999/xlink"><g id="tight-bounds" transform="matrix(1,0,0,1,0.2400000000000091,-0.03218984955748283)"><svg viewBox="0 0 395.52 69.06437969911498" height="69.06437969911498" width="395.52"><g><svg viewBox="0 0 535.6879494977402 93.54003828972557" height="69.06437969911498" width="395.52"><g><rect width="8.393569339589023" height="93.54003828972557" x="109.8016855518973" y="0" fill="#000000" opacity="1" stroke-width="0" stroke="transparent" fill-opacity="1" class="rect-qz-0" data-fill-palette-color="primary" rx="1%" id="qz-0" data-palette-color="#000000"></rect></g><g transform="matrix(1,0,0,1,140.1679494977403,0.23268666241224878)"><svg viewBox="0 0 395.5199999999999 93.07466496490107" height="93.07466496490107" width="395.5199999999999"><g id="textblocktransform"><svg viewBox="0 0 395.5199999999999 93.07466496490107" height="93.07466496490107" width="395.5199999999999" id="textblock"><g><svg viewBox="0 0 395.5199999999999 93.07466496490107" height="93.07466496490107" width="395.5199999999999"><g transform="matrix(1,0,0,1,0,0)"><svg width="395.5199999999999" viewBox="4.49 -36.01 153.01999999999998 36.01" height="93.07466496490107" data-palette-color="#000000"><g class="wordmark-text-0" data-fill-palette-color="primary" id="text-0"><path d="M4.49-35.01L9.5-35.01 9.5-5 27.49-5 27.49 0 4.49 0 4.49-35.01ZM33.01-4.81L33.01-26 37.79-26 37.79-4.81 51.19-4.81 51.19-26 56-26 56 0 51.19 0 51.19-4.39Q51.12-3.49 50.71-2.69 50.29-1.88 49.64-1.28 49-0.68 48.17-0.34 47.34 0 46.41 0L46.41 0 37.79 0Q36.81 0 35.94-0.38 35.06-0.76 34.41-1.4 33.76-2.05 33.38-2.93 33.01-3.81 33.01-4.81L33.01-4.81ZM87.01-21.19L87.01 0 82.2 0 82.2-21.19 68.79-21.19 68.79 0 64.01 0 64.01-26 68.79-26 68.79-21.41Q68.84-22.36 69.23-23.21 69.62-24.05 70.27-24.67 70.92-25.29 71.77-25.65 72.63-26 73.6-26L73.6-26 82.2-26Q83.2-26 84.08-25.62 84.96-25.24 85.6-24.6 86.25-23.95 86.63-23.07 87.01-22.19 87.01-21.19L87.01-21.19ZM95.01-4.81L95.01-21.19Q95.01-22.19 95.39-23.07 95.77-23.95 96.42-24.6 97.06-25.24 97.94-25.62 98.82-26 99.8-26L99.8-26 113.2-26 113.2-36.01 118.01-36.01 118.01 0 113.2 0 113.2-4.39Q113.13-3.49 112.71-2.69 112.3-1.88 111.65-1.28 111-0.68 110.17-0.34 109.34 0 108.42 0L108.42 0 99.8 0Q98.82 0 97.94-0.38 97.06-0.76 96.42-1.4 95.77-2.05 95.39-2.93 95.01-3.81 95.01-4.81L95.01-4.81ZM99.8-21.19L99.8-4.81 113.2-4.81 113.2-21.19 99.8-21.19ZM126.26-26L131.07-26 131.07 0 126.26 0 126.26-26ZM126.02-31.01L126.02-36.01 131.31-36.01 131.31-31.01 126.02-31.01ZM137.8-21.19L137.8-26 144.15-26 144.15-34.01 148.96-34.01 148.96-26 157.51-26 157.51-21.19 148.96-21.19 148.96-4.81 157.51-4.81 157.51 0 148.96 0Q147.99 0 147.11-0.38 146.23-0.76 145.57-1.4 144.91-2.05 144.53-2.93 144.15-3.81 144.15-4.81L144.15-4.81 144.15-21.19 137.8-21.19Z" fill="#000000" data-fill-palette-color="primary"></path></g></svg></g></svg></g></svg></g></svg></g><g transform="matrix(1,0,0,1,0,1.6288066368857628)"><svg viewBox="0 0 87.8289909456433 90.28242501595405" height="90.28242501595405" width="87.8289909456433"><g><svg xmlns="http://www.w3.org/2000/svg" xmlns:xlink="http://www.w3.org/1999/xlink" version="1.1" x="0" y="0" viewBox="9 6.607 84.52 86.881" enable-background="new 0 0 99.21 99.21" xml:space="preserve" height="90.28242501595405" width="87.8289909456433" class="icon-icon-0" data-fill-palette-color="accent" id="icon-0"><path d="M23.706 41.28c7.597 1.779 17.713 2.866 28.828 2.866 17.174 0 31.972-2.592 38.769-6.329l2.217-14.813c-7.598 2.574-20.597 4.271-35.363 4.271-23.43 0-42.423-4.272-42.423-9.542 0-5.271 18.993-9.543 42.423-9.543 10.436 0 19.985 0.849 27.375 2.254C77.71 8.111 65.489 6.607 51.742 6.607 28.137 6.607 9 11.036 9 16.501c0 0.134 0.021 0.267 0.043 0.4H9.039l2.959 19.773c1.459 1.119 3.61 2.157 6.315 3.082-3.398 1.329-5.356 2.877-5.356 4.532 0 0.121 0.019 0.24 0.04 0.36h-0.004l2.672 17.827c1.561 1.194 4 2.384 7.109 3.463-4.18 1.34-6.65 2.984-6.65 4.763 0 0.11 0.018 0.22 0.036 0.33h-0.004L18.6 85.218c4.674 3.578 17.887 8.27 33.47 8.27 14.18 0 25.871-3.191 31.481-6.271l2.359-13.794c-6.273 2.122-20.173 6.16-32.365 6.16-19.345 0-31.862-3.522-31.862-7.866 0-1.61 2.161-3.108 5.861-4.355 6.696 1.72 15.312 2.907 24.73 2.907 15.511 0 28.876-3.392 35.012-6.762l2.004-14.938c-6.861 2.321-18.602 5.435-31.937 5.435-21.161 0-38.315-3.852-38.315-8.604C19.039 43.906 20.731 42.503 23.706 41.28z" fill="#80ceee" data-fill-palette-color="accent"></path></svg></g></svg></g></svg></g><defs></defs></svg><rect width="395.52" height="69.06437969911498" fill="none" stroke="none" visibility="hidden"></rect></g></svg></g></svg>